<svg width="50" height="80" viewBox="0 0 50 80" fill="none" xmlns="http://www.w3.org/2000/svg">
<path d="M50 25.4545C50 39.5127 38.8071 50.9091 25 50.9091C11.1929 50.9091 0 39.5127 0 25.4545C0 11.3964 11.1929 0 25 0C38.8071 0 50 11.3964 50 25.4545ZM10 25.4545C10 33.8894 16.7157 40.7273 25 40.7273C33.2843 40.7273 40 33.8894 40 25.4545C40 17.0196 33.2843 10.1818 25 10.1818C16.7157 10.1818 10 17.0196 10 25.4545Z" fill="white"/>
<path d="M50 54.5454C50 57.8882 49.3534 61.1982 48.097 64.2865C46.8406 67.3747 44.9991 70.1808 42.6777 72.5445C40.3562 74.9082 37.6002 76.7831 34.5671 78.0624C31.5339 79.3416 28.283 80 25 80C21.717 80 18.4661 79.3416 15.4329 78.0624C12.3998 76.7831 9.64379 74.9082 7.32233 72.5445C5.00086 70.1808 3.15938 67.3747 1.90301 64.2865C0.646644 61.1982 -2.87013e-07 57.8882 0 54.5454L10 54.5454C10 56.5511 10.388 58.5371 11.1418 60.39C11.8956 62.243 13.0005 63.9267 14.3934 65.3449C15.7863 66.7631 17.4399 67.8881 19.2597 68.6556C21.0796 69.4231 23.0302 69.8182 25 69.8182C26.9698 69.8182 28.9204 69.4231 30.7403 68.6556C32.5601 67.8881 34.2137 66.7631 35.6066 65.3449C36.9995 63.9267 38.1044 62.243 38.8582 60.39C39.612 58.5371 40 56.5511 40 54.5454H50Z" fill="white"/>
</svg>
