<svg width="40" height="40" viewBox="0 0 40 40" fill="none" xmlns="http://www.w3.org/2000/svg">
<path d="M36.1667 10.6499H24.05C23.3667 10.6499 22.8 10.0832 22.8 9.3999C22.8 8.71657 23.3667 8.1499 24.05 8.1499H36.1667C36.85 8.1499 37.4167 8.71657 37.4167 9.3999C37.4167 10.0832 36.85 10.6499 36.1667 10.6499Z" fill="white"/>
<path d="M15.9667 10.6499H3.83337C3.15004 10.6499 2.58337 10.0832 2.58337 9.3999C2.58337 8.71657 3.15004 8.1499 3.83337 8.1499H15.95C16.6334 8.1499 17.2 8.71657 17.2 9.3999C17.2 10.0832 16.65 10.6499 15.9667 10.6499Z" fill="white"/>
<path d="M36.1667 26.8H24.05C23.3667 26.8 22.8 26.2334 22.8 25.55C22.8 24.8667 23.3667 24.3 24.05 24.3H36.1667C36.85 24.3 37.4167 24.8667 37.4167 25.55C37.4167 26.2334 36.85 26.8 36.1667 26.8Z" fill="white"/>
<path d="M36.1667 36.8999H24.05C23.3667 36.8999 22.8 36.3332 22.8 35.6499C22.8 34.9666 23.3667 34.3999 24.05 34.3999H36.1667C36.85 34.3999 37.4167 34.9666 37.4167 35.6499C37.4167 36.3332 36.85 36.8999 36.1667 36.8999Z" fill="white"/>
<path d="M30.15 16.6999C29.4667 16.6999 28.9 16.1333 28.9 15.4499V3.33325C28.9 2.64992 29.4667 2.08325 30.15 2.08325C30.8334 2.08325 31.4 2.64992 31.4 3.33325V15.4499C31.4 16.1499 30.85 16.6999 30.15 16.6999Z" fill="white"/>
<path d="M3.83336 37.9167C3.51669 37.9167 3.20002 37.8 2.95002 37.55C2.46669 37.0667 2.46669 36.2667 2.95002 35.7834L15.0667 23.6667C15.55 23.1834 16.35 23.1834 16.8334 23.6667C17.3167 24.15 17.3167 24.95 16.8334 25.4334L4.71669 37.55C4.48336 37.8 4.16669 37.9167 3.83336 37.9167Z" fill="white"/>
<path d="M15.9666 37.9167C15.65 37.9167 15.3333 37.8 15.0833 37.55L2.96663 25.4334C2.48329 24.95 2.48329 24.15 2.96663 23.6667C3.44996 23.1834 4.24996 23.1834 4.73329 23.6667L16.85 35.7834C17.3333 36.2667 17.3333 37.0667 16.85 37.55C16.6 37.8 16.2833 37.9167 15.9666 37.9167Z" fill="white"/>
</svg>
